<?xml version="1.0" encoding="utf-8"?>
<!-- Generator: Adobe Illustrator 13.0.2, SVG Export Plug-In  -->
<!DOCTYPE svg PUBLIC "-//W3C//DTD SVG 1.1//EN" "http://www.w3.org/Graphics/SVG/1.1/DTD/svg11.dtd" [
	<!ENTITY ns_flows "http://ns.adobe.com/Flows/1.0/">
]>
<svg version="1.1"
	 xmlns="http://www.w3.org/2000/svg" xmlns:xlink="http://www.w3.org/1999/xlink" xmlns:a="http://ns.adobe.com/AdobeSVGViewerExtensions/3.0/"
	 x="0px" y="0px" width="345px" height="343px" viewBox="-0.8 -0.5 345 343" enable-background="new -0.8 -0.5 345 343"
	 xml:space="preserve">
<defs>
</defs>
<path fill="#004F98" d="M191.5,9.8c3.5-3.9,8.1-7.1,14-5.6c9.5,3.6,17.3,11.5,26.2,16.3c3.6-2.5,7.9-4.1,12.8-3.1
	c10.9,4.9,16,16.6,24.5,23.9c3.8-2.5,10.4-2.1,14,0.5c8.4,7.4,9.9,19.9,16.5,29.3c5.4-0.8,11,1,14.2,5.4c4.5,9.4,4.9,20.2,7.4,30.3
	c4.4,1,9.1,3.3,11.4,7.4c4.3,10.7-0.7,22.2,0.2,33.7c4.4,1.6,9.1,5.3,9.7,10.4c0,12.2-6.8,21.6-8.9,32.9c4.1,3,7.1,7.9,6.1,13.3
	c-3.5,11.4-12,17.1-17.3,27.7c2.5,3.6,4.3,8.2,2.8,12.8c-5.4,10.7-15.3,14.5-23.5,22.9c-0.7,1.8,1.1,3.9,1.3,6.1
	c0.8,14.8-17,16.8-26.7,22.5l-4.8,2.8c0.7,4.9-0.5,9.7-4.1,12.8c-9.1,7.1-22.1,4.9-32.6,8.6c-1,4.4-3,9-6.9,11.2
	c-10.4,4.4-22.1-0.5-33.4,0c-2.3,0-2,3.3-3.5,4.3c-3.5,4.8-9.7,5.6-15.2,4.3c-8.6-2.8-16.5-6.6-25.2-8.9c-3.5,5.3-9.4,6.9-15.2,5.6
	c-8.9-4.1-16.6-11.4-25.5-16.5c-3.6,2.6-8.4,4.8-13.2,3.1c-10.9-5.8-15.2-16.1-23.7-24c-3,1.3-7.1,1.6-10.4,0.7
	c-11.9-5.6-12.4-20.7-19.4-30.6c-4.6,0.5-9.7-0.3-12.7-3.3c-7.4-8.9-5.3-22.2-9.1-32.9c-0.2-1-1.3-0.5-1.8-1
	c-4.3-0.2-8.4-3.3-10.2-7.1c-3.3-10.9,1.5-22.1,0.5-33.7c-4-2-8.6-5.6-8.7-10.5c-1.3-8.1,3.6-14,5.4-21.1l3.6-10.7
	c-2.8-3-6.9-6.6-6.6-11.8c1.6-11.8,12.5-19.4,17.5-30c-2.1-3-3.5-6.3-3.3-10.4C21.4,85,34.9,80.9,42.1,71.9c-1.8-4.1-2.3-10,0.5-14
	c7.6-8.6,19.9-9.7,29.1-16.5c-0.7-4.4,0.7-8.4,3.3-11.5c9.1-7.1,22.4-5.1,33.1-8.7c0.8-4.9,3.5-10.4,8.7-12.2
	c11-2.6,21.1,2,32.4,1.2c1.3-4.6,5.1-8.4,10-9.2C169.9,0.6,178.8,6,188.2,9L191.5,9.8z"/>
<path fill="none" stroke="#FFFFFF" stroke-width="1.836" d="M191.5,9.8c3.5-3.9,8.1-7.1,14-5.6c9.5,3.6,17.3,11.5,26.2,16.3
	c3.6-2.5,7.9-4.1,12.8-3.1c10.9,4.9,16,16.6,24.5,23.9c3.8-2.5,10.4-2.1,14,0.5c8.4,7.4,9.9,19.9,16.5,29.3c5.4-0.8,11,1,14.2,5.4
	c4.5,9.4,4.9,20.2,7.4,30.3c4.4,1,9.1,3.3,11.4,7.4c4.3,10.7-0.7,22.2,0.2,33.7c4.4,1.6,9.1,5.3,9.7,10.4c0,12.2-6.8,21.6-8.9,32.9
	c4.1,3,7.1,7.9,6.1,13.3c-3.5,11.4-12,17.1-17.3,27.7c2.5,3.6,4.3,8.2,2.8,12.8c-5.4,10.7-15.3,14.5-23.5,22.9
	c-0.7,1.8,1.1,3.9,1.3,6.1c0.8,14.8-17,16.8-26.7,22.5l-4.8,2.8c0.7,4.9-0.5,9.7-4.1,12.8c-9.1,7.1-22.1,4.9-32.6,8.6
	c-1,4.4-3,9-6.9,11.2c-10.4,4.4-22.1-0.5-33.4,0c-2.3,0-2,3.3-3.5,4.3c-3.5,4.8-9.7,5.6-15.2,4.3c-8.6-2.8-16.5-6.6-25.2-8.9
	c-3.5,5.3-9.4,6.9-15.2,5.6c-8.9-4.1-16.6-11.4-25.5-16.5c-3.6,2.6-8.4,4.8-13.2,3.1c-10.9-5.8-15.2-16.1-23.7-24
	c-3,1.3-7.1,1.6-10.4,0.7c-11.9-5.6-12.4-20.7-19.4-30.6c-4.6,0.5-9.7-0.3-12.7-3.3c-7.4-8.9-5.3-22.2-9.1-32.9
	c-0.2-1-1.3-0.5-1.8-1c-4.3-0.2-8.4-3.3-10.2-7.1c-3.3-10.9,1.5-22.1,0.5-33.7c-4-2-8.6-5.6-8.7-10.5c-1.3-8.1,3.6-14,5.4-21.1
	l3.6-10.7c-2.8-3-6.9-6.6-6.6-11.8c1.6-11.8,12.5-19.4,17.5-30c-2.1-3-3.5-6.3-3.3-10.4C21.4,85,34.9,80.9,42.1,71.9
	c-1.8-4.1-2.3-10,0.5-14c7.6-8.6,19.9-9.7,29.1-16.5c-0.7-4.4,0.7-8.4,3.3-11.5c9.1-7.1,22.4-5.1,33.1-8.7
	c0.8-4.9,3.5-10.4,8.7-12.2c11-2.6,21.1,2,32.4,1.2c1.3-4.6,5.1-8.4,10-9.2C169.9,0.6,178.8,6,188.2,9L191.5,9.8z"/>
<path fill="#004F98" d="M191.5,9.8c3.5-3.9,8.1-7.1,14-5.6c9.5,3.6,17.3,11.5,26.2,16.3c3.6-2.5,7.9-4.1,12.8-3.1
	c10.9,4.9,16,16.6,24.5,23.9c3.8-2.5,10.4-2.1,14,0.5c8.4,7.4,9.9,19.9,16.5,29.3c5.4-0.8,11,1,14.2,5.4c4.5,9.4,4.9,20.2,7.4,30.3
	c4.4,1,9.1,3.3,11.4,7.4c4.3,10.7-0.7,22.2,0.2,33.7c4.4,1.6,9.1,5.3,9.7,10.4c0,12.2-6.8,21.6-8.9,32.9c4.1,3,7.1,7.9,6.1,13.3
	c-3.5,11.4-12,17.1-17.3,27.7c2.5,3.6,4.3,8.2,2.8,12.8c-5.4,10.7-15.3,14.5-23.5,22.9c-0.7,1.8,1.1,3.9,1.3,6.1
	c0.8,14.8-17,16.8-26.7,22.5l-4.8,2.8c0.7,4.9-0.5,9.7-4.1,12.8c-9.1,7.1-22.1,4.9-32.6,8.6c-1,4.4-3,9-6.9,11.2
	c-10.4,4.4-22.1-0.5-33.4,0c-2.3,0-2,3.3-3.5,4.3c-3.5,4.8-9.7,5.6-15.2,4.3c-8.6-2.8-16.5-6.6-25.2-8.9c-3.5,5.3-9.4,6.9-15.2,5.6
	c-8.9-4.1-16.6-11.4-25.5-16.5c-3.6,2.6-8.4,4.8-13.2,3.1c-10.9-5.8-15.2-16.1-23.7-24c-3,1.3-7.1,1.6-10.4,0.7
	c-11.9-5.6-12.4-20.7-19.4-30.6c-4.6,0.5-9.7-0.3-12.7-3.3c-7.4-8.9-5.3-22.2-9.1-32.9c-0.2-1-1.3-0.5-1.8-1
	c-4.3-0.2-8.4-3.3-10.2-7.1c-3.3-10.9,1.5-22.1,0.5-33.7c-4-2-8.6-5.6-8.7-10.5c-1.3-8.1,3.6-14,5.4-21.1l3.6-10.7
	c-2.8-3-6.9-6.6-6.6-11.8c1.6-11.8,12.5-19.4,17.5-30c-2.1-3-3.5-6.3-3.3-10.4C21.4,85,34.9,80.9,42.1,71.9c-1.8-4.1-2.3-10,0.5-14
	c7.6-8.6,19.9-9.7,29.1-16.5c-0.7-4.4,0.7-8.4,3.3-11.5c9.1-7.1,22.4-5.1,33.1-8.7c0.8-4.9,3.5-10.4,8.7-12.2
	c11-2.6,21.1,2,32.4,1.2c1.3-4.6,5.1-8.4,10-9.2C169.9,0.6,178.8,6,188.2,9L191.5,9.8"/>
<path fill="#FFFFFF" d="M189,15.6c-1,11.2-1.8,22.4-3.3,33.2c-7.9-0.8-17.3-0.5-25.5-0.3l-4.3-35.4c0.5-2.1,1.5-4.1,3.8-4.8
	C170.1,8.3,179,13.8,189,15.6"/>
<path fill="none" stroke="#FFFFFF" stroke-width="0" d="M189,15.6c-1,11.2-1.8,22.4-3.3,33.2c-7.9-0.8-17.3-0.5-25.5-0.3l-4.3-35.4
	c0.5-2.1,1.5-4.1,3.8-4.8C170.1,8.3,179,13.8,189,15.6z"/>
<path fill="#FFFFFF" d="M219,20l9.4,5.4c-3.6,10.7-8.1,21.1-12,31.4c-7.7-3.1-16-5.3-24.5-6.7c2-12,2.8-24.5,5.3-36.2
	c1-0.8,1.8-2.5,3.6-2.6C207.8,11.1,213.2,17.1,219,20"/>
<path fill="none" stroke="#FFFFFF" stroke-width="0" d="M219,20l9.4,5.4c-3.6,10.7-8.1,21.1-12,31.4c-7.7-3.1-16-5.3-24.5-6.7
	c2-12,2.8-24.5,5.3-36.2c1-0.8,1.8-2.5,3.6-2.6C207.8,11.1,213.2,17.1,219,20z"/>
<path fill="#FFFFFF" d="M148.7,16.4c1.6,11,3.3,22.1,5.1,32.9c-8.4,1.5-16.8,3.1-24.9,6.1C124.3,45,120,34,115.7,23.3
	c-0.8-2.1,0.7-4.1,1.3-5.6c3.8-4.1,10.5-1.8,15.5-2.1C137.8,16.2,143.2,16.6,148.7,16.4"/>
<path fill="none" stroke="#FFFFFF" stroke-width="0" d="M148.7,16.4c1.6,11,3.3,22.1,5.1,32.9c-8.4,1.5-16.8,3.1-24.9,6.1
	C124.3,45,120,34,115.7,23.3c-0.8-2.1,0.7-4.1,1.3-5.6c3.8-4.1,10.5-1.8,15.5-2.1C137.8,16.2,143.2,16.6,148.7,16.4z"/>
<path fill="#FFFFFF" d="M246.8,27.1c5.3,5.8,11.5,12.3,17.4,18.1c-6.4,9.4-13.7,18.1-19.8,27.5c-7.7-4.8-13.8-9.1-22.1-13
	c0.8-4.3,3.6-8.9,5.1-13.3c2.8-6.9,5.4-14,9.1-20.6C239.9,23.5,244.3,24.6,246.8,27.1"/>
<path fill="none" stroke="#FFFFFF" stroke-width="0" d="M246.8,27.1c5.3,5.8,11.5,12.3,17.4,18.1c-6.4,9.4-13.7,18.1-19.8,27.5
	c-7.7-4.8-13.8-9.1-22.1-13c0.8-4.3,3.6-8.9,5.1-13.3c2.8-6.9,5.4-14,9.1-20.6C239.9,23.5,244.3,24.6,246.8,27.1z"/>
<path fill="#FFFFFF" d="M123,57.7c-8.1,4-15.3,7.6-22.4,12.7C93,60.8,86.8,51.8,79.3,41.9c-0.7-1.8-1-3.9,0.2-5.8
	c2-2.5,5.3-3.8,8.4-4.1c7.4-1.2,14.5-3.5,21.9-4.8L123,57.7z"/>
<path fill="none" stroke="#FFFFFF" stroke-width="0" d="M123,57.7c-8.1,4-15.3,7.6-22.4,12.7C93,60.8,86.8,51.8,79.3,41.9
	c-0.7-1.8-1-3.9,0.2-5.8c2-2.5,5.3-3.8,8.4-4.1c7.4-1.2,14.5-3.5,21.9-4.8L123,57.7z"/>
<path fill="#FFFFFF" d="M279.9,48.8c5.4,8.1,8.7,16.3,13.7,24.5c-7.9,7.2-17.9,14.6-26.3,21.9c-5.3-7.2-11.9-12.7-18.1-18.8
	l21.4-27.6C272.5,45.5,277.9,46.2,279.9,48.8"/>
<path fill="none" stroke="#FFFFFF" stroke-width="0" d="M279.9,48.8c5.4,8.1,8.7,16.3,13.7,24.5c-7.9,7.2-17.9,14.6-26.3,21.9
	c-5.3-7.2-11.9-12.7-18.1-18.8l21.4-27.6C272.5,45.5,277.9,46.2,279.9,48.8z"/>
<path fill="#FFFFFF" d="M95.3,73.8c-5.3,5.3-12.2,10.2-17,16.5c-0.5,0.2-0.5,1-1,1.3C68,85.4,58.6,77.3,49.9,70.6
	c-1.8-1.5-2.3-4.4-2-6.7c4.9-6.8,13.2-8.4,19.8-12.7c2.6-0.8,5.4-4.8,7.9-2.6L95.3,73.8z"/>
<path fill="none" stroke="#FFFFFF" stroke-width="0" d="M95.3,73.8c-5.3,5.3-12.2,10.2-17,16.5c-0.5,0.2-0.5,1-1,1.3
	C68,85.4,58.6,77.3,49.9,70.6c-1.8-1.5-2.3-4.4-2-6.7c4.9-6.8,13.2-8.4,19.8-12.7c2.6-0.8,5.4-4.8,7.9-2.6L95.3,73.8z"/>
<path fill="#FFFFFF" d="M72.9,96.4v0.8c-4.9,7.1-9.4,13.2-12.5,21.1c-10.7-4.1-21.2-8.9-31.8-13.2c-1.2-0.7-2.5-1.8-3-3.1
	c-0.8-3.1,0.2-6.3,2.5-8.4L45.9,77C55,82.6,64.2,90.1,72.9,96.4"/>
<path fill="none" stroke="#FFFFFF" stroke-width="0" d="M72.9,96.4v0.8c-4.9,7.1-9.4,13.2-12.5,21.1c-10.7-4.1-21.2-8.9-31.8-13.2
	c-1.2-0.7-2.5-1.8-3-3.1c-0.8-3.1,0.2-6.3,2.5-8.4L45.9,77C55,82.6,64.2,90.1,72.9,96.4z"/>
<path fill="#FFFFFF" d="M307.1,79.9c4.1,8.7,5.3,18.8,7.9,28.1c-10.4,5.3-20.9,9.7-31.4,14.2c-3.8-8.1-7.6-14.7-12.4-21.7l0.2-0.8
	l28.3-21.6C302.3,77.6,305.4,77.8,307.1,79.9"/>
<path fill="none" stroke="#FFFFFF" stroke-width="0" d="M307.1,79.9c4.1,8.7,5.3,18.8,7.9,28.1c-10.4,5.3-20.9,9.7-31.4,14.2
	c-3.8-8.1-7.6-14.7-12.4-21.7l0.2-0.8l28.3-21.6C302.3,77.6,305.4,77.8,307.1,79.9z"/>
<path fill="#FFFFFF" d="M131.6,91.1l0.2,13.3c-8.4-3.8-21.1-3.5-28.3,2.3c-9.4,7.6-13.3,19.4-11.7,32.3
	c3.3,24.9,19.1,44.9,17.8,71.4c-1.3,8.2-6.3,16.5-14.5,19.4c-6.3,2-14.8,3-20.8-0.8c-2-4.3-3.3-8.9-4.8-13.3
	c5.6,2.5,14,4.1,19.4,0.5c6.9-4.1,8.9-12.8,7.4-21.2c-6.1-22.7-20.3-43.1-16.1-69.1c2.6-14.5,11.2-30,26.3-35.1
	C114.1,88.3,124.1,88,131.6,91.1"/>
<path fill="none" stroke="#FFFFFF" stroke-width="0" d="M131.6,91.1l0.2,13.3c-8.4-3.8-21.1-3.5-28.3,2.3
	c-9.4,7.6-13.3,19.4-11.7,32.3c3.3,24.9,19.1,44.9,17.8,71.4c-1.3,8.2-6.3,16.5-14.5,19.4c-6.3,2-14.8,3-20.8-0.8
	c-2-4.3-3.3-8.9-4.8-13.3c5.6,2.5,14,4.1,19.4,0.5c6.9-4.1,8.9-12.8,7.4-21.2c-6.1-22.7-20.3-43.1-16.1-69.1
	c2.6-14.5,11.2-30,26.3-35.1C114.1,88.3,124.1,88,131.6,91.1z"/>
<path fill="#FFFFFF" d="M269.5,114.2c2.6,5.6,4,13.8,0.8,19.4c-1.1,1.8-3,3.8-4.8,4.9c1.6,0.7,3.3,1.5,4.4,2.8
	c4.1,4.9-0.8,14,4.4,18.4c-3.9,0.7-8.1,3-12,1c-4.8-4.1-0.8-12.2-5.3-16.1c-2.8,0.7-5.9,0.3-8.4,1.6c-0.2,6.3,0.5,12.8-0.5,18.8
	c-3.6,0.8-7.6,1.3-11.4,1.8v-55.5c8.1-1.3,16-4.4,24.5-4.1C265.1,108.4,268.1,111,269.5,114.2"/>
<path fill="none" stroke="#FFFFFF" stroke-width="0" d="M269.5,114.2c2.6,5.6,4,13.8,0.8,19.4c-1.1,1.8-3,3.8-4.8,4.9
	c1.6,0.7,3.3,1.5,4.4,2.8c4.1,4.9-0.8,14,4.4,18.4c-3.9,0.7-8.1,3-12,1c-4.8-4.1-0.8-12.2-5.3-16.1c-2.8,0.7-5.9,0.3-8.4,1.6
	c-0.2,6.3,0.5,12.8-0.5,18.8c-3.6,0.8-7.6,1.3-11.4,1.8v-55.5c8.1-1.3,16-4.4,24.5-4.1C265.1,108.4,268.1,111,269.5,114.2z"/>
<path fill="#FFFFFF" d="M57.6,123.7c-3,8.2-5.8,16.3-7.1,25.2c-12.3-1.3-24.4-3.5-36.2-5.6c-1.5-0.7-2.5-2-3.1-3.6
	c-0.7-4.1,1.8-7.4,3.8-10.4c4-5.6,7.2-11,10.9-17.1C36.5,115.8,47.1,119.9,57.6,123.7"/>
<path fill="none" stroke="#FFFFFF" stroke-width="0" d="M57.6,123.7c-3,8.2-5.8,16.3-7.1,25.2c-12.3-1.3-24.4-3.5-36.2-5.6
	c-1.5-0.7-2.5-2-3.1-3.6c-0.7-4.1,1.8-7.4,3.8-10.4c4-5.6,7.2-11,10.9-17.1C36.5,115.8,47.1,119.9,57.6,123.7z"/>
<path fill="#FFFFFF" d="M233.3,112.2c0.5,3.5,0.5,7.1,0,10.9c-4.4,0.3-8.4,2-12.8,2.5l-0.3,10.4c3.5,0.2,7.1-1.2,10.4-1.2v10.9
	c-3.1,1-7.1,1.2-10.4,2.5c0.2,3.5-0.3,7.2,0.5,10.4l12.5-2.3c0.8,3.5,0.5,8.2,0.2,11.7l-24.7,4.6l0.2-55.8
	C217.2,115.5,224.9,112.9,233.3,112.2"/>
<path fill="none" stroke="#FFFFFF" stroke-width="0" d="M233.3,112.2c0.5,3.5,0.5,7.1,0,10.9c-4.4,0.3-8.4,2-12.8,2.5l-0.3,10.4
	c3.5,0.2,7.1-1.2,10.4-1.2v10.9c-3.1,1-7.1,1.2-10.4,2.5c0.2,3.5-0.3,7.2,0.5,10.4l12.5-2.3c0.8,3.5,0.5,8.2,0.2,11.7l-24.7,4.6
	l0.2-55.8C217.2,115.5,224.9,112.9,233.3,112.2z"/>
<path fill="#FFFFFF" d="M324.9,116.2c3.9,7.4,0.8,17.4,1.6,25.3c-0.7,2.3,2,7.2-2.1,6.6c-11,1.5-20.9,3.5-31.9,4.8
	c-1.3-8.6-3.8-16.8-6.4-24.7c11-4.9,22.2-9.2,33.3-13.8C321.6,113.8,323,115.2,324.9,116.2"/>
<path fill="none" stroke="#FFFFFF" stroke-width="0" d="M324.9,116.2c3.9,7.4,0.8,17.4,1.6,25.3c-0.7,2.3,2,7.2-2.1,6.6
	c-11,1.5-20.9,3.5-31.9,4.8c-1.3-8.6-3.8-16.8-6.4-24.7c11-4.9,22.2-9.2,33.3-13.8C321.6,113.8,323,115.2,324.9,116.2z"/>
<path fill="#FFFFFF" d="M205,128.3c-3,1-6.1,1.1-9.1,1.8l-0.5,1.3v43.5c-3.8,1.2-7.9,1.8-11.7,2.6v-44.4c-3.1-0.3-6.4,0.5-9.4,1.3
	c-0.5-3.8-0.2-7.1-0.3-11.2c10.5-1.5,20.6-3.8,31-5.8V128.3z"/>
<path fill="none" stroke="#FFFFFF" stroke-width="0" d="M205,128.3c-3,1-6.1,1.1-9.1,1.8l-0.5,1.3v43.5c-3.8,1.2-7.9,1.8-11.7,2.6
	v-44.4c-3.1-0.3-6.4,0.5-9.4,1.3c-0.5-3.8-0.2-7.1-0.3-11.2c10.5-1.5,20.6-3.8,31-5.8V128.3z"/>
<path fill="#004F98" d="M258.7,121.6c1.6,3.3,1.5,8.4-0.7,11.4c-2.3,2.8-5.9,1.8-8.9,2.8v-15.3C252.1,119.9,256.9,118.1,258.7,121.6
	"/>
<path fill="#FFFFFF" d="M170.2,135.9c1,14.3,0.3,29.3,0.5,43.8c-3.6,1.3-7.7,1.5-11.5,2.6c-0.3-4.3,0.3-8.9-0.7-13
	c-3.9,0.8-8.1,1.3-11.9,2.6v12.7l-11.7,2.1l0.3-44.4c1.3-6.1,5.8-11.7,11.7-13.7C155.3,126,166.8,126.8,170.2,135.9"/>
<path fill="none" stroke="#FFFFFF" stroke-width="0" d="M170.2,135.9c1,14.3,0.3,29.3,0.5,43.8c-3.6,1.3-7.7,1.5-11.5,2.6
	c-0.3-4.3,0.3-8.9-0.7-13c-3.9,0.8-8.1,1.3-11.9,2.6v12.7l-11.7,2.1l0.3-44.4c1.3-6.1,5.8-11.7,11.7-13.7
	C155.3,126,166.8,126.8,170.2,135.9z"/>
<path fill="#FFFFFF" d="M132,142.3c-3,1-6.4,0.8-9.4,2l-0.5,45.1c-3.6,1.3-7.7,1.5-11.7,2.3v-44.9c-3.1-0.3-5.9,1.6-9.4,1.3v-10.7
	c10.2-2.1,20.6-3.9,31-5.9V142.3z"/>
<path fill="none" stroke="#FFFFFF" stroke-width="0" d="M132,142.3c-3,1-6.4,0.8-9.4,2l-0.5,45.1c-3.6,1.3-7.7,1.5-11.7,2.3v-44.9
	c-3.1-0.3-5.9,1.6-9.4,1.3v-10.7c10.2-2.1,20.6-3.9,31-5.9V142.3z"/>
<path fill="#004F98" d="M158.4,141.5c0.8,5.1,0.5,11,0.2,16.3c-3.5,0.7-7.4,1.5-11,2.1l-0.5-0.5l0.2-15.1c1-3.1,2.8-4.9,6.1-5.6
	C155.4,138.5,157.6,139.8,158.4,141.5"/>
<path fill="#FFFFFF" d="M49.4,155.2c-1.3,9.2-0.7,16.6-0.5,26.2L14,185.3c-2.3,0-4-1.5-5.1-3.5c-0.8-1.8-0.5-4.3-0.2-6.1
	c2.1-8.4,5.6-16.3,7.7-24.5L49.4,155.2z"/>
<path fill="none" stroke="#FFFFFF" stroke-width="0" d="M49.4,155.2c-1.3,9.2-0.7,16.6-0.5,26.2L14,185.3c-2.3,0-4-1.5-5.1-3.5
	c-0.8-1.8-0.5-4.3-0.2-6.1c2.1-8.4,5.6-16.3,7.7-24.5L49.4,155.2z"/>
<path fill="#FFFFFF" d="M333.4,156.5c1.1,1.8,2,4.8,1.3,7.2c-2.8,8.2-4.6,17.1-7.6,25.2l-34.1-4.1c0.8-8.6,0.8-17.1,0-25.8
	c12.8-1,25-4.1,37.9-3.9L333.4,156.5z"/>
<path fill="none" stroke="#FFFFFF" stroke-width="0" d="M333.4,156.5c1.1,1.8,2,4.8,1.3,7.2c-2.8,8.2-4.6,17.1-7.6,25.2l-34.1-4.1
	c0.8-8.6,0.8-17.1,0-25.8c12.8-1,25-4.1,37.9-3.9L333.4,156.5z"/>
<path fill="#FFFFFF" d="M49.4,187.6c1.6,8.6,3.8,16.9,6.6,25c-10.7,4.6-21.6,9.4-32.6,13.2c-2.3,1.1-4.1-0.5-5.8-1.5
	c-2.3-2.6-2.3-6.6-1.8-10l0.5-21.4c1.6-0.7,3.5-0.7,5.3-1C30.9,190.7,40,188.6,49.4,187.6"/>
<path fill="none" stroke="#FFFFFF" stroke-width="0" d="M49.4,187.6c1.6,8.6,3.8,16.9,6.6,25c-10.7,4.6-21.6,9.4-32.6,13.2
	c-2.3,1.1-4.1-0.5-5.8-1.5c-2.3-2.6-2.3-6.6-1.8-10l0.5-21.4c1.6-0.7,3.5-0.7,5.3-1C30.9,190.7,40,188.6,49.4,187.6z"/>
<path fill="#FFFFFF" d="M327.7,196.1c1.5,0.8,3.3,1.6,3.9,3.3c1.5,8.2-5.9,14-9.1,20.1l-5.3,8.9c-10.5-4.3-21.6-7.6-31.9-12.2
	c2.6-8.2,5.8-16.3,7.1-25L327.7,196.1z"/>
<path fill="none" stroke="#FFFFFF" stroke-width="0" d="M327.7,196.1c1.5,0.8,3.3,1.6,3.9,3.3c1.5,8.2-5.9,14-9.1,20.1l-5.3,8.9
	c-10.5-4.3-21.6-7.6-31.9-12.2c2.6-8.2,5.8-16.3,7.1-25L327.7,196.1z"/>
<path fill="#FFFFFF" d="M71,241.6c-9.4,6.8-18.8,13.7-28.2,20.4c-1.3,1-3.6,1.5-5.3,0.5c-4.6-2.3-4.6-7.9-5.8-12.3
	c-1.6-5.9-2.6-12-4.3-17.9c10.2-4.6,20.3-9.7,30.8-13.7C61.6,226.8,66.7,233.5,71,241.6"/>
<path fill="none" stroke="#FFFFFF" stroke-width="0" d="M71,241.6c-9.4,6.8-18.8,13.7-28.2,20.4c-1.3,1-3.6,1.5-5.3,0.5
	c-4.6-2.3-4.6-7.9-5.8-12.3c-1.6-5.9-2.6-12-4.3-17.9c10.2-4.6,20.3-9.7,30.8-13.7C61.6,226.8,66.7,233.5,71,241.6z"/>
<path fill="#FFFFFF" d="M316.5,236.5c1.7,1.3,2.1,4.1,1.5,6.3c-4.8,8.4-14.8,13.8-21.1,21.1c-9.1-5.6-18.3-12.7-27-19.3v-1
	c5.6-6.4,9.1-14,12.8-21.6C294.1,226.6,305.6,230.9,316.5,236.5"/>
<path fill="none" stroke="#FFFFFF" stroke-width="0" d="M316.5,236.5c1.7,1.3,2.1,4.1,1.5,6.3c-4.8,8.4-14.8,13.8-21.1,21.1
	c-9.1-5.6-18.3-12.7-27-19.3v-1c5.6-6.4,9.1-14,12.8-21.6C294.1,226.6,305.6,230.9,316.5,236.5z"/>
<path fill="#FFFFFF" d="M93,264.3c-6.6,9.5-14.3,18.6-22.2,28.5c-1.6,1-3.9,1.1-5.9,0.7c-6.9-5.3-8.6-15.3-14.2-22.5l-2-3.9
	L75.1,246C79.8,252.4,86.9,259.3,93,264.3"/>
<path fill="none" stroke="#FFFFFF" stroke-width="0" d="M93,264.3c-6.6,9.5-14.3,18.6-22.2,28.5c-1.6,1-3.9,1.1-5.9,0.7
	c-6.9-5.3-8.6-15.3-14.2-22.5l-2-3.9L75.1,246C79.8,252.4,86.9,259.3,93,264.3z"/>
<path fill="#FFFFFF" d="M266.1,249.3c9.2,7.6,19.3,14.6,28.3,22.1c1,1.5,1.6,3.5,1,5.4c-4.9,7.1-13.5,9.1-20.8,13.3
	c-2.1,1.2-4,3-6.3,3.3l-21.1-26.3c6.4-5.4,12.3-10.7,17.9-17.8H266.1z"/>
<path fill="none" stroke="#FFFFFF" stroke-width="0" d="M266.1,249.3c9.2,7.6,19.3,14.6,28.3,22.1c1,1.5,1.6,3.5,1,5.4
	c-4.9,7.1-13.5,9.1-20.8,13.3c-2.1,1.2-4,3-6.3,3.3l-21.1-26.3c6.4-5.4,12.3-10.7,17.9-17.8H266.1z"/>
<path fill="#FFFFFF" d="M226.2,264.7c2.8,2.2,2.6,6.1,2.4,9.3c-2,2.6-3.9,5.5-7.9,5.7c-3.2-0.6-6.9-2-8.1-5.5
	c-1.4-3.4-0.2-7.1,2.4-9.7C217.5,261.3,223.6,262.5,226.2,264.7"/>
<path fill="none" stroke="#FFFFFF" stroke-width="0" d="M226.2,264.7c2.8,2.2,2.6,6.1,2.4,9.3c-2,2.6-3.9,5.5-7.9,5.7
	c-3.2-0.6-6.9-2-8.1-5.5c-1.4-3.4-0.2-7.1,2.4-9.7C217.5,261.3,223.6,262.5,226.2,264.7z"/>
<path fill="#004F98" d="M224.7,266.9c1.1,1.5,2,3.8,1.3,6.1c-0.3,1.8-2,2.9-3.3,3.5c-2.5,0.7-5.3,0.3-6.9-1.8c-1.2-1-0.8-2.6-1.3-4
	c0.3-2,1.5-3.9,3.1-4.9C220,264.8,223.1,265.6,224.7,266.9"/>
<path fill="#FFFFFF" d="M224.4,267.4c0,1.6,0.2,3.8-1.8,4l1.8,3.8c-3.9,2.8-2.2-3.6-5.1-3.4c-0.6,1-0.2,2.4-0.4,3.6h-1.8
	c0.2-3-0.6-6.9,0.6-9.3C219.9,266.7,222.6,265.7,224.4,267.4"/>
<path fill="none" stroke="#FFFFFF" stroke-width="0" d="M224.4,267.4c0,1.6,0.2,3.8-1.8,4l1.8,3.8c-3.9,2.8-2.2-3.6-5.1-3.4
	c-0.6,1-0.2,2.4-0.4,3.6h-1.8c0.2-3-0.6-6.9,0.6-9.3C219.9,266.7,222.6,265.7,224.4,267.4z"/>
<path fill="#004F98" d="M222.3,269c-0.2,1.6-2,0.6-3,1l0.2-2.2C220.7,267.6,222.3,267.6,222.3,269"/>
<path fill="#FFFFFF" d="M98.6,268.6c6.6,5.3,14,9.1,21.6,13c-4.9,11-9.7,22.6-14.5,33.1c-1.8,2-4.4,2.8-7.1,2.1
	c-7.7-4.9-14-15.3-20.8-21.1l19.8-27.2H98.6z"/>
<path fill="none" stroke="#FFFFFF" stroke-width="0" d="M98.6,268.6c6.6,5.3,14,9.1,21.6,13c-4.9,11-9.7,22.6-14.5,33.1
	c-1.8,2-4.4,2.8-7.1,2.1c-7.7-4.9-14-15.3-20.8-21.1l19.8-27.2H98.6z"/>
<path fill="#FFFFFF" d="M263.3,298.5c1,1.6,1.3,4,0.7,5.8c-1.2,2.1-2.8,3.6-5.3,4.6c-8.4,2-17.1,3.3-25.4,5.8l-13.8-31.3
	c7.4-3.8,15.6-7.7,22.6-12.7C249.1,279.9,256,288.8,263.3,298.5"/>
<path fill="none" stroke="#FFFFFF" stroke-width="0" d="M263.3,298.5c1,1.6,1.3,4,0.7,5.8c-1.2,2.1-2.8,3.6-5.3,4.6
	c-8.4,2-17.1,3.3-25.4,5.8l-13.8-31.3c7.4-3.8,15.6-7.7,22.6-12.7C249.1,279.9,256,288.8,263.3,298.5z"/>
<path fill="#FFFFFF" d="M149.8,290.6c-0.5,12-3,23.9-4.6,35.7c-0.7,2.1-2.6,3.1-4.6,4.1c-6.8-0.5-11.7-5.9-17.1-8.7l-9.9-5.9
	c4.1-10.7,7.9-21.4,12.3-31.9C133.7,286.5,141.3,290,149.8,290.6"/>
<path fill="none" stroke="#FFFFFF" stroke-width="0" d="M149.8,290.6c-0.5,12-3,23.9-4.6,35.7c-0.7,2.1-2.6,3.1-4.6,4.1
	c-6.8-0.5-11.7-5.9-17.1-8.7l-9.9-5.9c4.1-10.7,7.9-21.4,12.3-31.9C133.7,286.5,141.3,290,149.8,290.6z"/>
<path fill="#FFFFFF" d="M213.9,285.5c4.4,11,8.9,22.1,13.2,33.2c0.7,1.8-0.3,3.6-1,5.1c-2.1,2.3-4.9,2.6-7.9,2.8
	c-7.9-0.8-16.1-0.8-24.4-1c-1.6-11.4-3.6-22.6-4.9-34.1C197.6,290.8,205.5,287.6,213.9,285.5"/>
<path fill="none" stroke="#FFFFFF" stroke-width="0" d="M213.9,285.5c4.4,11,8.9,22.1,13.2,33.2c0.7,1.8-0.3,3.6-1,5.1
	c-2.1,2.3-4.9,2.6-7.9,2.8c-7.9-0.8-16.1-0.8-24.4-1c-1.6-11.4-3.6-22.6-4.9-34.1C197.6,290.8,205.5,287.6,213.9,285.5z"/>
<path fill="#FFFFFF" d="M182.4,292.1l4.3,36c-0.7,3.3-2.3,4.9-5.6,5.6c-9.9-1.2-18.6-5.6-28-7.9c1-10.7,1.8-22.7,3.3-33.9
	C165,292.4,173.9,293.2,182.4,292.1"/>
<path fill="none" stroke="#FFFFFF" stroke-width="0" d="M182.4,292.1l4.3,36c-0.7,3.3-2.3,4.9-5.6,5.6c-9.9-1.2-18.6-5.6-28-7.9
	c1-10.7,1.8-22.7,3.3-33.9C165,292.4,173.9,293.2,182.4,292.1z"/>
<polygon fill="#FFFFFF" points="115.1,245.9 120.9,229.6 123.5,229.7 125.8,236.3 128.4,229.6 131.6,229.6 136.4,245.9 132.6,245.9 
	129.5,237.7 126.9,245.9 124.7,245.9 122.3,237.7 119.3,245.9 "/>
<path fill="#FFFFFF" d="M149,238.7v-5.3c0-0.6-0.8-1-2.8-1c-2,0-2.5,0.6-2.5,1v5.3H149 M139.8,245.9V233c0-0.4,0.2-3.4,3.5-3.4h5.9
	c2.5,0,3.4,1.9,3.4,3.4v12.9H149V242h-5.3v3.9H139.8z"/>
<path fill="#FFFFFF" d="M161.1,233v4h3.3c0.9,0,1.5-1.2,1.5-2.2c0-1-0.6-1.8-1.4-1.8H161.1 M157.3,229.6h7.8c1.3,0,4.7,1.2,4.8,4.2
	c0.1,2.8-2.7,4.8-2.7,4.8s1.2,0.3,1.5,2.6c0.2,1.8,0.1,2.2,0.4,3.5l0.5,1.3h-3.8c0,0-0.6-1.1-0.7-2.7c-0.1-1.6-0.5-3-1.7-3h-2.2v5.7
	h-3.9V229.6z"/>
<path fill="#FFFFFF" d="M182.7,236.9c-0.5-0.9-1.2-1.1-1.6-1.2l5.2-6.2h-4.1l-5.5,5.8v-5.8h-3.8v16.4h3.8v-7.5c0.5,0,1.1,0,1.5,0
	c0.8,0,1,0.1,1.6,0.7c0.7,0.6,0.9,4.6,0.9,5.3c0,0.7,0.4,1.5,0.8,1.5h3.4c0,0-0.7-0.8-0.8-2.7S183.4,238.2,182.7,236.9"/>
<polygon fill="#FFFFFF" points="200.9,229.6 190.1,229.6 190.1,245.9 200.9,245.9 200.9,243.4 194.2,243.4 194.2,239.4 199.4,239.4 
	199.4,236.5 194.2,236.5 194.2,233 200.9,233 "/>
<polygon fill="#FFFFFF" points="203.5,229.6 203.5,233 206.9,233 206.9,245.9 211,245.9 211,233 214.7,233 214.7,229.6 "/>
<path fill="#FFFFFF" d="M226.8,233.2v-2.8c0,0-1.8-1.1-4.6-1.1c-2.8,0-5.6,2-5.6,4.7c0,2.7,1.7,4,3.1,4.6c1.4,0.6,3.9,1.4,3.7,3.1
	c-0.2,3.1-6.3,0.6-6.3,0.6v3.2c0,0,2.6,1,4.8,0.8c2.2-0.2,5-0.5,5.8-3c0.8-2.5,0.6-4.4-2.3-5.9s-5-2-4.2-3.7
	C222.4,231.6,226.8,233.2,226.8,233.2"/>
<path fill="#FFFFFF" d="M164.9,212.7c0,0,6.6-1.1,8.8-1.5c3.4-0.7,2.2-4.8,0.2-4.6c-0.8,0.1-8.9,1.6-8.9,1.6L164.9,212.7
	 M164.9,202.5c0,0,5.7-1.1,7.9-1.5c3.5-0.7,2.2-4.8,0.2-4.6c-0.8,0.1-8,1.6-8,1.6L164.9,202.5z M175.7,190.3
	c1.4-0.1,5.3,1.2,5.8,4.9c0.5,3.7-3.1,7.2-3.1,7.2s2.2,0.2,2.9,3.1c0.9,3.5,0.1,9.9-4,10.9c-2.1,0.5-19,3.7-19,3.7l0.4-27
	C158.8,193.1,174.3,190.4,175.7,190.3"/>
<path fill="#FFFFFF" d="M192.1,197.2c0,0,6.2-1.1,7.4-1.3s2.3-2,2.1-3.1c-0.2-1.2-1.3-1.9-2.8-1.5c-1.5,0.4-6.7,1.3-6.7,1.3V197.2
	 M186.5,187.9c0,0,14.1-3,14.9-3.1c0.8-0.1,7.5,0.7,7.1,5.4c-0.5,5.4-3.9,7.5-3.9,7.5s2.5,0.9,2.7,3.6c0.5,6.3,3.2,8.8,3.2,8.8
	l-5.4,1.1c0,0-1.2-0.2-1.5-1.2c-0.3-1-1-6.3-1.9-7.3c-0.9-1-0.9-1.2-1.9-1.1c-1,0.1-7.8,1.5-7.8,1.5l0,10.8l-5.6,1V187.9z"/>
<path fill="#FFFFFF" d="M220.2,187c-1.2,0.2-1.8,1.5-1.8,3c0,1.5-0.1,10.4-0.1,10.4s0.1,2,1.6,1.7c1.4-0.3,6.8-1.3,6.8-1.3
	s1.6-0.6,1.6-2.6c0-2-0.1-11.7-0.1-11.7s-0.7-1-2-0.8C225,186.1,221.4,186.8,220.2,187 M230.4,179c3.1-0.6,3.5,2.9,3.5,5.3
	c0,0.7,0.3,10.5,0,14.8c-0.3,4.3-2.9,7-4,7.2c-1.1,0.2-10.4,2-12.6,2.4s-4.9-2.1-4.9-4v-19c0-1.5,1.6-3.5,2.5-3.7
	C215.9,181.8,230.4,179,230.4,179"/>
<path fill="#FFFFFF" d="M256.2,175c0,0-3.2-0.4-5.9,0.1c-4,0.8-8.9,4.7-8.7,8.9c0.3,3.9,2.5,10.3,1.3,12.2c-2.5,3.8-5.9,2.7-5.9,2.7
	l0,5.8c0,0,6,0.1,9.5-3.9c3.4-3.9,2.9-5.5,2.6-7.9c-0.4-2.3-2.1-8.5-0.7-10.7c1.8-3,8-1.8,8-1.8L256.2,175"/>
<path fill="#FFFFFF" d="M257.7,200.4c1.9-0.1,3.4-1.6,3.4-3.3s-1.5-3.1-3.4-3c-1.9,0.1-3.4,1.6-3.4,3.4
	C254.3,199.1,255.8,200.5,257.7,200.4"/>
</svg>
